<svg width="39" height="39" viewBox="0 0 39 39" fill="none" xmlns="http://www.w3.org/2000/svg">
<path d="M14.3694 19.1288C14.3694 19.3411 14.4092 19.547 14.4888 19.7465C14.5684 19.9461 14.6746 20.1117 14.8073 20.2433L22.1313 27.5673C22.4232 27.8592 22.7947 28.0052 23.2458 28.0052C23.697 28.0052 24.0685 27.8592 24.3604 27.5673C24.6523 27.2754 24.7982 26.9039 24.7982 26.4528C24.7982 26.0017 24.6523 25.6302 24.3604 25.3383L18.1509 19.1288L24.3604 12.9193C24.6523 12.6274 24.7982 12.2558 24.7982 11.8047C24.7982 11.3536 24.6523 10.9821 24.3604 10.6902C24.0685 10.3983 23.697 10.2523 23.2458 10.2523C22.7947 10.2523 22.4232 10.3983 22.1313 10.6902L14.8073 18.0142C14.6481 18.1735 14.535 18.3459 14.4681 18.5317C14.4013 18.7175 14.3684 18.9165 14.3694 19.1288Z" fill="white"/>
</svg>
