<svg width="197" height="39" viewBox="0 0 197 39" fill="none" xmlns="http://www.w3.org/2000/svg">
<g clip-path="url(#clip0_31_177)">
<path d="M10.9274 19.6802L9.96649 20.6358L12.3335 22.9878L13.2944 22.0321L10.9274 19.6802Z" fill="#EDEDED"/>
<path d="M26.096 15.2136L25.1349 16.1691L27.5009 18.5207L28.462 17.5652L26.096 15.2136Z" fill="#EDEDED"/>
<path d="M19.2119 0C8.61991 0 0 8.56683 0 19.0968C0 29.6259 8.61902 38.1937 19.2119 38.1937C29.8039 38.1937 38.4228 29.6268 38.4228 19.0968C38.4228 8.56683 29.8039 0 19.2119 0ZM34.3242 23.8882C34.3107 23.9284 34.2973 23.9684 34.2839 24.0076C34.2522 24.1012 34.2195 24.1938 34.1868 24.2864C34.1503 24.3914 34.1128 24.4974 34.0735 24.6025C34.038 24.6951 34.0024 24.7858 33.9659 24.8774C33.9255 24.9806 33.8833 25.0837 33.8401 25.1859C33.8007 25.2766 33.7623 25.3672 33.722 25.4571C33.6768 25.5573 33.6326 25.6576 33.5846 25.7578C33.5433 25.8475 33.501 25.9373 33.4568 26.0252C33.4069 26.1235 33.3579 26.2209 33.3079 26.3174C33.2618 26.4052 33.2157 26.4921 33.1686 26.58C33.1158 26.6754 33.063 26.7709 33.0092 26.8645C32.9602 26.9504 32.9113 27.0373 32.8594 27.1232C32.8046 27.2149 32.7479 27.3075 32.6903 27.3992C32.6384 27.4832 32.5847 27.5672 32.5309 27.6503C32.4723 27.7411 32.4118 27.8308 32.3512 27.9186C32.2945 28.0017 32.2388 28.0828 32.1812 28.1649C32.1197 28.2518 32.0563 28.3388 31.992 28.4237C31.9324 28.5048 31.8738 28.5861 31.8124 28.6643C31.7461 28.7493 31.6807 28.8334 31.6135 28.9165C31.5502 28.9947 31.4886 29.0721 31.4253 29.1494C31.3561 29.2306 31.2869 29.3117 31.2169 29.392C31.1525 29.4673 31.0862 29.5419 31.018 29.6163C30.9478 29.6965 30.8749 29.7729 30.8028 29.8512C30.7337 29.9238 30.6645 29.9963 30.5944 30.068C30.5205 30.1444 30.4455 30.2198 30.3696 30.2943C30.2976 30.3649 30.2265 30.4356 30.1535 30.5044C30.0767 30.5779 29.9989 30.6495 29.922 30.7201C29.8471 30.7879 29.7722 30.8557 29.6963 30.9216C29.6166 30.9922 29.5349 31.061 29.4533 31.1288C29.3774 31.1937 29.3015 31.2586 29.2227 31.3226C29.1401 31.3885 29.0565 31.4554 28.9721 31.5203C28.8923 31.5824 28.8135 31.6434 28.7329 31.7036C28.6483 31.7676 28.5619 31.8287 28.4754 31.8907C28.3928 31.9499 28.3112 32.0092 28.2276 32.0664C28.1479 32.1219 28.0682 32.1753 27.9875 32.2278C27.9779 32.2345 27.9693 32.2402 27.9596 32.2469C27.876 32.3004 27.7934 32.3567 27.7089 32.4092C27.6186 32.4666 27.5264 32.5219 27.4342 32.5783C27.4303 32.5811 27.4265 32.583 27.4237 32.5849C27.3132 32.6508 27.2017 32.7176 27.0894 32.7807C27.025 32.817 26.9607 32.8532 26.8943 32.8896C26.8271 32.9268 26.7599 32.963 26.6917 33.0003C26.5428 33.0795 26.393 33.1559 26.2412 33.2313C26.1836 33.26 26.1269 33.2896 26.0683 33.3173C26.0068 33.346 25.9444 33.3746 25.8819 33.4023C25.7024 33.4853 25.5217 33.5655 25.3383 33.642C25.2893 33.662 25.2412 33.682 25.1923 33.7021C25.1568 33.7164 25.1203 33.7307 25.0838 33.745C24.834 33.8444 24.5833 33.9398 24.3268 34.0267C24.3239 34.0277 24.321 34.0286 24.3172 34.0296C24.3134 34.0315 24.3096 34.0334 24.3066 34.0344C24.1183 34.0974 23.9292 34.1585 23.738 34.2149C23.6958 34.2282 23.6525 34.2397 23.6093 34.2511C23.374 34.3189 23.1358 34.3801 22.8956 34.4373C22.8821 34.4401 22.8687 34.444 22.8543 34.4469C22.6152 34.5032 22.374 34.5538 22.131 34.5987C22.0119 34.6216 21.8928 34.6436 21.7727 34.6627C21.6536 34.6818 21.5354 34.698 21.4154 34.7152C21.2857 34.7333 21.156 34.7505 21.0255 34.7648C20.9102 34.7772 20.7949 34.7896 20.6796 34.8001C20.5336 34.8135 20.3866 34.824 20.2387 34.8335C20.1475 34.8393 20.0552 34.847 19.9631 34.8498C19.7162 34.8622 19.4674 34.8699 19.2167 34.8699C11.0156 34.8699 4.24754 28.651 3.433 20.7095C3.3792 20.1806 3.35135 19.643 3.35135 19.0988C3.35135 19.0166 3.35616 18.9364 3.35712 18.8543C3.35807 18.8266 3.35903 18.798 3.35999 18.7693L14.1172 29.4664C14.4438 29.7911 14.8721 29.9534 15.3006 29.9534C15.728 29.9534 16.1555 29.7901 16.4821 29.4664L27.4966 18.5191L25.1308 16.1673L15.3006 25.9393L12.3296 22.9859L9.96279 20.6341L9.33265 20.0068L3.98243 14.6874L3.97955 14.6855C4.03046 14.5136 4.08328 14.3408 4.139 14.1708L4.14188 14.1717C5.69604 9.48443 9.40468 5.76151 14.097 4.16788C14.1498 4.14974 14.2026 4.1316 14.2555 4.11441C14.4044 4.06571 14.5533 4.01988 14.7041 3.975C14.7847 3.95113 14.8654 3.92917 14.9471 3.90626C15.0835 3.86806 15.2199 3.83082 15.3572 3.79645C15.4831 3.76494 15.6099 3.73725 15.7376 3.70956C15.8942 3.67423 16.0526 3.64176 16.2121 3.61025C16.3773 3.57874 16.5425 3.54914 16.7087 3.52241C16.799 3.50809 16.8884 3.49663 16.9786 3.48327C17.1371 3.4613 17.2956 3.44029 17.4551 3.4231C17.5415 3.41356 17.6289 3.40496 17.7153 3.39637C17.8912 3.38014 18.0679 3.36677 18.2447 3.35627C18.3157 3.35245 18.3849 3.34672 18.455 3.34386C18.7047 3.33239 18.9573 3.32476 19.21 3.32476C19.7575 3.32476 20.2982 3.35245 20.8314 3.40592C28.2881 4.1612 34.2329 10.0716 34.9927 17.4841C35.0465 18.0131 35.0753 18.5516 35.0753 19.0959C35.0753 19.178 35.0705 19.2582 35.0687 19.3393C35.0677 19.368 35.0667 19.3957 35.0667 19.4234L24.3076 8.72723C23.9935 8.41594 23.568 8.24025 23.1242 8.24025C22.6795 8.24025 22.2549 8.41594 21.9408 8.72723L10.9233 19.6792L13.2901 22.031L23.1233 12.2554L26.0942 15.2087L26.0914 15.2125L28.4572 17.5643L28.46 17.5605L34.4404 23.5054L34.4423 23.5072C34.4058 23.6352 34.3674 23.7632 34.328 23.8901C34.328 23.8901 34.3261 23.8892 34.3242 23.8882Z" fill="#151624"/>
<path d="M57.5115 28.2848V18.9053C57.5115 17.2177 57.1555 15.952 56.4159 15.1082C55.6762 14.2644 54.7724 13.8424 53.6765 13.8424C52.5807 13.8424 51.6768 14.2644 50.9645 15.0757C50.2522 15.9195 49.8962 17.1854 49.8962 18.9053V28.2848H48.0607V18.9053C48.0607 17.7047 48.1977 16.6659 48.4716 15.7898C48.7456 14.9135 49.1292 14.1669 49.6222 13.5827C50.1154 12.9985 50.6906 12.5442 51.3753 12.2521C52.033 11.96 52.7453 11.8303 53.5394 11.8303C54.6353 11.8303 55.6215 12.1224 56.4708 12.7066C57.3199 13.3231 57.95 14.1994 58.3884 15.3678H58.443C58.854 14.1994 59.5114 13.3231 60.3606 12.7066C61.2099 12.1224 62.1687 11.8303 63.2918 11.8303C64.0864 11.8303 64.7986 11.96 65.4833 12.2521C66.1409 12.5442 66.7162 12.9985 67.2091 13.5827C67.7023 14.1669 68.0858 14.9135 68.3597 15.7898C68.6337 16.6659 68.7708 17.7047 68.7708 18.9053V28.2848H66.9352V18.9053C66.9352 17.1854 66.5792 15.9195 65.8669 15.0757C65.1546 14.2644 64.2506 13.8424 63.1549 13.8424C62.0591 13.8424 61.1552 14.2644 60.4429 15.1082C59.7033 15.952 59.3472 17.2177 59.3472 18.9053V28.2848H57.5115Z" fill="#151624"/>
<path d="M71.975 28.2856V11.8184H73.8104V28.2856H71.975Z" fill="#151624"/>
<path d="M72.9021 9.13121C72.5187 9.13121 72.19 8.97585 71.9159 8.63424C71.6421 8.3236 71.5051 7.95076 71.5051 7.54703C71.5051 7.112 71.6421 6.73937 71.9159 6.42871C72.19 6.11798 72.5187 5.96277 72.9021 5.96277C73.2859 5.96277 73.6143 6.11798 73.8884 6.42871C74.1624 6.73937 74.2992 7.11201 74.2992 7.54703C74.2992 7.95076 74.1624 8.3236 73.8884 8.63424C73.6143 8.97585 73.2859 9.13121 72.9021 9.13121Z" fill="#151624"/>
<path d="M88.521 28.2848V19.9116C88.521 17.9318 88.0828 16.4063 87.2064 15.3678C86.3292 14.3618 85.1512 13.8424 83.6724 13.8424C82.1928 13.8424 81.015 14.3618 80.1384 15.3678C79.2619 16.4063 78.8236 17.9318 78.8236 19.9116V28.2848H76.988V19.9116C76.988 18.581 77.1525 17.4125 77.4812 16.4063C77.7825 15.4003 78.2482 14.5565 78.8236 13.8748C79.3988 13.1934 80.111 12.7066 80.9328 12.3496C81.7546 11.9925 82.6586 11.8303 83.6724 11.8303C84.6862 11.8303 85.5894 11.9925 86.4121 12.3496C87.2333 12.7066 87.9454 13.1934 88.521 13.8748C89.0958 14.5565 89.5616 15.4003 89.8909 16.4063C90.1917 17.4125 90.3567 18.581 90.3567 19.9116V28.2848H88.521Z" fill="#151624"/>
<path d="M99.78 28.2836C98.7109 28.2836 97.7256 28.0937 96.8484 27.6503C95.9443 27.2385 95.1769 26.6684 94.5476 25.94C93.8899 25.2116 93.3965 24.3564 93.0404 23.343C92.6843 22.3293 92.4924 21.2208 92.4924 20.0491C92.4924 18.782 92.6843 17.6418 93.068 16.5967C93.4241 15.5832 93.9444 14.728 94.5745 13.9997C95.2045 13.3028 95.972 12.7644 96.8207 12.3844C97.6703 12.0042 98.5467 11.8143 99.5052 11.8143C100.821 11.8143 101.971 12.1311 102.957 12.7961C103.916 13.4613 104.655 14.3479 105.149 15.4565H105.203V5.38477H107.039V19.954C107.039 21.1891 106.875 22.3293 106.519 23.343C106.163 24.3882 105.642 25.2433 105.012 25.9717C104.381 26.7001 103.615 27.2702 102.711 27.682C101.807 28.0937 100.848 28.2836 99.78 28.2836ZM99.78 26.3201C100.574 26.3201 101.313 26.1617 101.999 25.8449C102.656 25.5284 103.231 25.0848 103.697 24.5147C104.163 23.9763 104.546 23.3113 104.82 22.551C105.067 21.7909 105.203 20.9675 105.203 20.0491C105.203 19.1305 105.067 18.307 104.82 17.5469C104.546 16.7867 104.163 16.1216 103.697 15.5516C103.231 15.0131 102.656 14.5697 101.999 14.253C101.313 13.9363 100.574 13.7778 99.78 13.7778C98.9849 13.7778 98.2459 13.9363 97.5882 14.253C96.9036 14.5697 96.3281 15.0131 95.8622 15.5516C95.3964 16.1216 95.0127 16.7867 94.7663 17.5469C94.4924 18.307 94.3558 19.1305 94.3558 20.0491C94.3558 20.9675 94.4924 21.7909 94.7663 22.551C95.0127 23.3113 95.3964 23.9763 95.8622 24.5147C96.3281 25.0848 96.9036 25.5284 97.5882 25.8449C98.2459 26.1617 98.9849 26.3201 99.78 26.3201Z" fill="#151624"/>
<path d="M110.029 24.9641C110.61 25.3594 111.306 25.7017 112.074 25.939C112.84 26.2023 113.631 26.334 114.49 26.334C115.21 26.334 115.814 26.2023 116.348 25.9653C116.883 25.7281 117.301 25.4119 117.626 25.0431C117.929 24.6743 118.138 24.2527 118.23 23.8049C118.324 23.3569 118.3 22.9354 118.138 22.5137C117.975 22.0923 117.696 21.7235 117.301 21.3809C116.883 21.0384 116.326 20.8276 115.628 20.6959L112.979 20.3006C112.538 20.2217 112.097 20.1162 111.655 19.9581C111.214 19.8001 110.819 19.5631 110.471 19.2468C110.122 18.9307 109.843 18.5355 109.657 18.0348C109.448 17.5344 109.379 16.9283 109.402 16.1905C109.425 15.5846 109.588 15.0312 109.867 14.5308C110.145 14.0301 110.517 13.5822 110.982 13.1871C111.423 12.8181 111.958 12.5283 112.562 12.2912C113.166 12.0806 113.816 11.9752 114.49 11.9752C115.466 11.9752 116.395 12.1069 117.278 12.3703C118.138 12.6602 118.927 13.029 119.602 13.477L118.858 14.9787C118.324 14.6362 117.65 14.3464 116.883 14.1093C116.093 13.8984 115.303 13.793 114.49 13.793C113.909 13.793 113.398 13.8984 112.957 14.0828C112.492 14.2937 112.12 14.557 111.818 14.8468C111.516 15.1631 111.33 15.5057 111.214 15.8744C111.097 16.2696 111.075 16.6385 111.167 16.981C111.261 17.3235 111.47 17.6396 111.795 17.9294C112.12 18.2192 112.584 18.4038 113.189 18.5091L116.209 18.9834C116.721 19.0624 117.209 19.2205 117.696 19.4576C118.161 19.6947 118.579 20.0108 118.927 20.3798C119.276 20.7748 119.555 21.2228 119.765 21.7497C119.95 22.3031 120.02 22.8827 119.973 23.5413C119.926 24.1736 119.765 24.7797 119.508 25.3329C119.253 25.8863 118.882 26.3867 118.417 26.782C117.952 27.2035 117.394 27.546 116.744 27.7831C116.07 28.0202 115.326 28.1521 114.49 28.1521C113.491 28.1521 112.515 28.0202 111.609 27.7304C110.68 27.4143 109.867 27.0191 109.146 26.5187L110.029 24.9641Z" fill="#151624"/>
<path d="M148.911 21.9543C148.911 23.0258 148.774 23.9349 148.527 24.7142C148.281 25.5259 147.924 26.1754 147.459 26.6949C146.993 27.2469 146.418 27.6367 145.788 27.8963C145.158 28.1562 144.446 28.2859 143.651 28.2859C142.856 28.2859 142.144 28.1562 141.486 27.8963C140.83 27.6367 140.282 27.2469 139.816 26.6949C139.35 26.1754 138.966 25.5259 138.72 24.7142C138.474 23.9349 138.336 23.0258 138.336 21.9543V5.36731H140.172V11.8234H148.144V13.8042H140.172V21.9543C140.172 23.4155 140.5 24.5195 141.131 25.2012C141.761 25.9157 142.582 26.2729 143.651 26.2729C144.692 26.2729 145.542 25.9157 146.171 25.2337C146.802 24.552 147.13 23.448 147.13 21.9543V21.5971H148.911V21.9543Z" fill="#151624"/>
<path d="M128.967 13.8452C127.516 13.8452 126.338 14.2867 125.379 15.2012C124.42 16.1154 123.845 17.3452 123.626 18.827V18.8901H134.282V18.827C134.173 18.1019 133.981 17.4082 133.679 16.8092C133.379 16.2101 132.995 15.6741 132.529 15.2325C132.063 14.7912 131.543 14.4444 130.94 14.1921C130.337 13.9714 129.68 13.8452 128.967 13.8452ZM123.572 20.7819C123.626 21.6017 123.79 22.3582 124.091 23.0205C124.393 23.6825 124.776 24.2816 125.242 24.7545C125.708 25.2592 126.256 25.6374 126.886 25.9212C127.516 26.205 128.201 26.3312 128.967 26.3312C130.036 26.3312 130.995 26.0789 131.789 25.6058C132.583 25.1329 133.187 24.4394 133.625 23.5249H135.625C135.104 24.9753 134.255 26.1418 133.105 26.9932C131.927 27.8445 130.557 28.2858 128.967 28.2858C127.899 28.2858 126.913 28.0967 126.037 27.6554C125.133 27.2454 124.365 26.6778 123.736 25.9527C123.078 25.2275 122.585 24.3763 122.229 23.3674C121.873 22.3582 121.681 21.2548 121.681 20.0883C121.681 18.9216 121.873 17.8181 122.229 16.8092C122.585 15.8001 123.078 14.9174 123.736 14.1921C124.365 13.467 125.133 12.8995 126.037 12.4895C126.913 12.0797 127.899 11.8906 128.967 11.8906C130.036 11.8906 130.995 12.0797 131.899 12.4895C132.803 12.8995 133.57 13.467 134.201 14.1921C134.83 14.9174 135.323 15.8001 135.679 16.8092C136.035 17.8181 136.2 18.9216 136.2 20.0883V20.7819H123.572Z" fill="#151624"/>
<path d="M174.347 14.5935C173.196 14.5935 172.237 14.9418 171.443 15.6067C170.649 16.303 170.128 17.2211 169.881 18.3923V18.4556H178.84V18.3923C178.592 17.2211 178.072 16.303 177.278 15.6067C176.484 14.9418 175.497 14.5935 174.347 14.5935ZM169.799 21.1464V21.2096C169.991 22.5076 170.511 23.5521 171.306 24.3119C172.1 25.1033 173.114 25.4832 174.347 25.4832C176.1 25.4832 177.36 24.8184 178.127 23.4888H181.004C180.483 24.945 179.634 26.1162 178.483 26.9709C177.305 27.8256 175.936 28.2687 174.347 28.2687C173.278 28.2687 172.293 28.0789 171.415 27.6357C170.511 27.2241 169.745 26.6543 169.115 25.9263C168.457 25.1983 167.964 24.3436 167.607 23.3307C167.251 22.3176 167.06 21.2096 167.06 20.0385C167.06 18.8672 167.251 17.7592 167.607 16.7463C167.964 15.7332 168.457 14.847 169.115 14.1188C169.745 13.3908 170.511 12.8209 171.415 12.4093C172.293 11.998 173.278 11.808 174.347 11.808C175.415 11.808 176.374 11.998 177.278 12.4093C178.182 12.8209 178.948 13.3908 179.579 14.1188C180.209 14.847 180.702 15.7332 181.058 16.7463C181.414 17.7592 181.578 18.8672 181.578 20.0385V21.1464H169.799Z" fill="#151624"/>
<path d="M164.923 19.9226C164.923 21.1895 164.759 22.3297 164.403 23.3434C164.047 24.3885 163.553 25.2437 162.923 25.972C162.293 26.7005 161.526 27.2705 160.622 27.6825C159.718 28.0941 158.76 28.2841 157.691 28.2841C156.623 28.2841 155.636 28.0941 154.76 27.6507C153.856 27.2389 153.089 26.6688 152.458 25.9403C151.802 25.212 151.308 24.3568 150.952 23.3434C150.596 22.3297 150.404 21.2212 150.404 20.0494C150.404 18.719 150.596 17.5472 150.98 16.5021C151.363 15.4885 151.884 14.6333 152.514 13.9366C153.144 13.2397 153.884 12.7013 154.705 12.353C155.5 12.0046 156.349 11.8146 157.226 11.8146C158.376 11.8146 159.39 12.0996 160.266 12.6381C161.115 13.1765 161.8 13.9366 162.266 14.8866H162.321V5.38501H164.923V19.9226ZM157.691 25.497C158.376 25.497 159.006 25.3702 159.581 25.0852C160.157 24.8001 160.649 24.4202 161.061 23.945C161.471 23.4699 161.773 22.8998 161.992 22.2348C162.211 21.5695 162.321 20.8412 162.321 20.0494C162.321 19.2574 162.211 18.529 161.992 17.864C161.773 17.1988 161.471 16.597 161.061 16.122C160.649 15.6469 160.157 15.2985 159.581 15.0134C159.006 14.7284 158.376 14.6016 157.691 14.6016C157.006 14.6016 156.376 14.7284 155.801 15.0134C155.226 15.2985 154.732 15.6469 154.322 16.122C153.91 16.597 153.582 17.1988 153.362 17.864C153.144 18.529 153.034 19.2574 153.034 20.0494C153.034 20.8412 153.144 21.5695 153.362 22.2348C153.582 22.8998 153.91 23.4699 154.322 23.945C154.732 24.4202 155.226 24.8001 155.801 25.0852C156.376 25.3702 157.006 25.497 157.691 25.497Z" fill="#151624"/>
<path d="M187.907 28.2654L182.264 11.809H185.113L189.496 25.3338H189.55L193.934 11.809H196.701L191.058 28.2654H187.907Z" fill="#151624"/>
</g>
<defs>
<clipPath id="clip0_31_177">
<rect width="196.74" height="38.2099" fill="white"/>
</clipPath>
</defs>
</svg>
