<svg width="39" height="39" viewBox="0 0 39 39" fill="none" xmlns="http://www.w3.org/2000/svg">
<path d="M24.8076 19.2182C24.8076 19.4305 24.7678 19.6364 24.6882 19.836C24.6086 20.0355 24.5024 20.2011 24.3697 20.3327L17.0457 27.6568C16.7538 27.9487 16.3823 28.0946 15.9312 28.0946C15.48 28.0946 15.1085 27.9487 14.8166 27.6568C14.5247 27.3649 14.3788 26.9933 14.3788 26.5422C14.3788 26.0911 14.5247 25.7196 14.8166 25.4277L21.0261 19.2182L14.8166 13.0087C14.5247 12.7168 14.3788 12.3453 14.3788 11.8941C14.3788 11.443 14.5247 11.0715 14.8166 10.7796C15.1085 10.4877 15.48 10.3418 15.9312 10.3418C16.3823 10.3418 16.7538 10.4877 17.0457 10.7796L24.3697 18.1037C24.5289 18.2629 24.642 18.4354 24.7089 18.6211C24.7757 18.8069 24.8086 19.0059 24.8076 19.2182Z" fill="white"/>
</svg>
